<?xml version="1.0" encoding="UTF-8" standalone="no"?>
<!DOCTYPE svg PUBLIC "-//W3C//DTD SVG 1.0//EN" "http://www.w3.org/TR/2001/PR-SVG-20010719/DTD/svg10.dtd">
<svg width="66cm" height="66cm" viewBox="359 -21 1302 1302" xmlns="http://www.w3.org/2000/svg" xmlns:xlink="http://www.w3.org/1999/xlink">
  <defs/>
  <g id="Fons">
    <rect style="fill: #c0f0f0; fill-opacity: 1; stroke-opacity: 1; stroke-width: 2; stroke: #c0f0f0" x="360" y="1060" width="1260" height="220" rx="0" ry="0"/>
    <g>
      <polyline style="fill: none; stroke-opacity: 1; stroke-width: 2; stroke: #000000" points="1167.33,1228.01 1167.33,1260 740,1260 740,774.878 "/>
      <polygon style="fill: #000000; fill-opacity: 1; stroke-opacity: 1; stroke-width: 2; stroke: #000000" fill-rule="evenodd" points="745,774.878 740,764.878 735,774.878 "/>
    </g>
    <g>
      <line style="fill: none; stroke-opacity: 1; stroke-width: 2; stroke: #000000" x1="826.86" y1="1080.54" x2="748.519" y2="775.205"/>
      <polygon style="fill: #000000; fill-opacity: 1; stroke-opacity: 1; stroke-width: 2; stroke: #000000" fill-rule="evenodd" points="753.362,773.962 746.034,765.519 743.676,776.448 "/>
    </g>
    <g>
      <line style="fill: none; stroke-opacity: 1; stroke-width: 2; stroke: #000000" x1="457.344" y1="1079.96" x2="526.308" y2="775.613"/>
      <polygon style="fill: #000000; fill-opacity: 1; stroke-opacity: 1; stroke-width: 2; stroke: #000000" fill-rule="evenodd" points="531.185,776.718 528.518,765.86 521.432,774.508 "/>
    </g>
    <rect style="fill: #cccccc; fill-opacity: 1; stroke-opacity: 1; stroke-width: 2; stroke: #cccccc" x="360" y="860" width="1260" height="180" rx="0" ry="0"/>
    <rect style="fill: #cccccc; fill-opacity: 1; stroke-opacity: 1; stroke-width: 2; stroke: #cccccc" x="1060" y="520" width="560" height="340" rx="0" ry="0"/>
    <rect style="fill: #cccccc; fill-opacity: 1; stroke-opacity: 1; stroke-width: 2; stroke: #cccccc" x="360" y="-20" width="1260" height="540" rx="0" ry="0"/>
    <rect style="fill: #ffffff; fill-opacity: 1; stroke-opacity: 1; stroke-width: 2; stroke: #000000" x="600" y="40" width="600" height="440" rx="0" ry="0"/>
    <text font-size="12.8" style="fill: #000000; fill-opacity: 1; stroke: none;text-anchor:middle;font-family:sans-serif;font-style:normal;font-weight:normal" x="800" y="100">
      <tspan x="800" y="100">URI1</tspan>
    </text>
    <text font-size="12.8" style="fill: #000000; fill-opacity: 1; stroke: none;text-anchor:middle;font-family:sans-serif;font-style:normal;font-weight:normal" x="860" y="100">
      <tspan x="860" y="100">URI2</tspan>
    </text>
    <text font-size="12.8" style="fill: #000000; fill-opacity: 1; stroke: none;text-anchor:middle;font-family:sans-serif;font-style:normal;font-weight:normal" x="960" y="100">
      <tspan x="960" y="100">URIn</tspan>
    </text>
    <g>
      <line style="fill: none; stroke-opacity: 1; stroke-width: 2; stroke: #000000" x1="800" y1="100" x2="703.835" y2="157.699"/>
      <polyline style="fill: none; stroke-opacity: 1; stroke-width: 2; stroke: #000000" points="707.92,149.417 701.917,158.85 713.065,157.992 "/>
    </g>
    <g>
      <line style="fill: none; stroke-opacity: 1; stroke-width: 2; stroke: #000000" x1="860" y1="100" x2="898.915" y2="255.661"/>
      <polyline style="fill: none; stroke-opacity: 1; stroke-width: 2; stroke: #000000" points="892.182,249.342 899.458,257.831 901.883,246.917 "/>
    </g>
    <g>
      <line style="fill: none; stroke-opacity: 1; stroke-width: 2; stroke: #000000" x1="960" y1="100" x2="1098" y2="376"/>
      <polyline style="fill: none; stroke-opacity: 1; stroke-width: 2; stroke: #000000" points="1090.06,371.292 1099,378 1099,366.82 "/>
    </g>
    <text font-size="12.8" style="fill: #000000; fill-opacity: 1; stroke: none;text-anchor:middle;font-family:sans-serif;font-style:normal;font-weight:normal" x="920" y="100">
      <tspan x="920" y="100">…</tspan>
    </text>
    <text font-size="12.8" style="fill: #000000; fill-opacity: 1; stroke: none;text-anchor:middle;font-family:sans-serif;font-style:normal;font-weight:normal" x="1000" y="360">
      <tspan x="1000" y="360">…</tspan>
    </text>
    <g>
      <rect style="fill: #ffffff; fill-opacity: 1; stroke-opacity: 1; stroke-width: 2; stroke: #000000" x="620" y="160" width="160" height="80" rx="0" ry="0"/>
      <text font-size="12.8" style="fill: #000000; fill-opacity: 1; stroke: none;text-anchor:start;font-family:sans-serif;font-style:normal;font-weight:normal" x="640" y="180">
        <tspan x="640" y="180">uri: URI1</tspan>
        <tspan x="640" y="196">date:</tspan>
        <tspan x="640" y="212">versions: […]</tspan>
        <tspan x="640" y="228">sigs: [(pk, sig), …]</tspan>
      </text>
    </g>
    <g>
      <rect style="fill: #ffffff; fill-opacity: 1; stroke-opacity: 1; stroke-width: 2; stroke: #000000" x="820" y="260" width="160" height="80" rx="0" ry="0"/>
      <text font-size="12.8" style="fill: #000000; fill-opacity: 1; stroke: none;text-anchor:start;font-family:sans-serif;font-style:normal;font-weight:normal" x="840" y="280">
        <tspan x="840" y="280">uri: URI2</tspan>
        <tspan x="840" y="296">date:</tspan>
        <tspan x="840" y="312">versions: […]</tspan>
        <tspan x="840" y="328">sigs: [(pk, sig), …]</tspan>
      </text>
    </g>
    <g>
      <rect style="fill: #ffffff; fill-opacity: 1; stroke-opacity: 1; stroke-width: 2; stroke: #000000" x="1020" y="380" width="160" height="80" rx="0" ry="0"/>
      <text font-size="12.8" style="fill: #000000; fill-opacity: 1; stroke: none;text-anchor:start;font-family:sans-serif;font-style:normal;font-weight:normal" x="1040" y="400">
        <tspan x="1040" y="400">uri: URIn</tspan>
        <tspan x="1040" y="416">date:</tspan>
        <tspan x="1040" y="432">versions: […]</tspan>
        <tspan x="1040" y="448">sigs: [(pk, sig), …]</tspan>
      </text>
    </g>
    <g>
      <rect style="fill: #ffffff; fill-opacity: 1; stroke-opacity: 1; stroke-width: 2; stroke: #c0c0c0" x="1220" y="380" width="160" height="80" rx="0" ry="0"/>
      <text font-size="12.8" style="fill: #c0c0c0; fill-opacity: 1; stroke: none;text-anchor:start;font-family:sans-serif;font-style:normal;font-weight:normal" x="1240" y="400">
        <tspan x="1240" y="400">uri: URIn</tspan>
        <tspan x="1240" y="416">date:</tspan>
        <tspan x="1240" y="432">versions: […]</tspan>
        <tspan x="1240" y="448">sigs: [(pk, sig), …]</tspan>
      </text>
    </g>
    <g>
      <polygon style="fill: #ffffff; fill-opacity: 1; stroke-opacity: 1; stroke-width: 2; stroke: #000000" fill-rule="evenodd" points="1300,320 1513.9,320 1525.9,332 1525.9,370 1300,370 "/>
      <polyline style="fill: none; stroke-opacity: 1; stroke-width: 1; stroke: #000000" points="1513.9,320 1513.9,332 1525.9,332 "/>
      <text font-size="12.8" style="fill: #000000; fill-opacity: 1; stroke: none;text-anchor:start;font-family:monospace;font-style:normal;font-weight:normal" x="1307" y="344.9">
        <tspan x="1307" y="344.9">Older descriptor versions</tspan>
        <tspan x="1307" y="360.9">no longer part of data base</tspan>
      </text>
    </g>
    <text font-size="23.7067" style="fill: #000000; fill-opacity: 1; stroke: none;text-anchor:end;font-family:sans-serif;font-style:italic;font-weight:700" x="1600" y="20">
      <tspan x="1600" y="20">Injector1</tspan>
    </text>
    <g>
      <rect style="fill: #ffffff; fill-opacity: 1; stroke-opacity: 1; stroke-width: 2; stroke: #000000" x="1420" y="160" width="160" height="40" rx="0" ry="0"/>
      <rect style="fill: #ffffff; fill-opacity: 1; stroke-opacity: 1; stroke-width: 2; stroke: #000000" x="1420" y="200" width="160" height="40" rx="0" ry="0"/>
      <text font-size="12.8" style="fill: #000000; fill-opacity: 1; stroke: none;text-anchor:middle;font-family:sans-serif;font-style:normal;font-weight:normal" x="1500" y="176.425">
        <tspan x="1500" y="176.425">Injector1 pubkey</tspan>
        <tspan x="1500" y="192.425">(e.g. Ed25519)</tspan>
      </text>
      <text font-size="12.8" style="fill: #000000; fill-opacity: 1; stroke: none;text-anchor:middle;font-family:sans-serif;font-style:normal;font-weight:normal" x="1500" y="224.425">
        <tspan x="1500" y="224.425">Injector1 privkey</tspan>
      </text>
    </g>
    <g>
      <line style="fill: none; stroke-opacity: 1; stroke-width: 2; stroke: #000000" x1="781.002" y1="195.5" x2="1415.53" y2="160.248"/>
      <polyline style="fill: none; stroke-opacity: 1; stroke-width: 2; stroke: #000000" points="1408.06,165.671 1417.77,160.124 1407.51,155.686 "/>
    </g>
    <g>
      <line style="fill: none; stroke-opacity: 1; stroke-width: 2; stroke: #000000" x1="981.004" y1="281.307" x2="1415.64" y2="181.006"/>
      <polyline style="fill: none; stroke-opacity: 1; stroke-width: 2; stroke: #000000" points="1409.2,187.623 1417.82,180.503 1406.95,177.879 "/>
    </g>
    <g>
      <line style="fill: none; stroke-opacity: 1; stroke-width: 2; stroke: #000000" x1="1159.63" y1="379.005" x2="1416.31" y2="202.534"/>
      <polyline style="fill: none; stroke-opacity: 1; stroke-width: 2; stroke: #000000" points="1412.75,211.052 1418.16,201.267 1407.08,202.812 "/>
    </g>
    <g>
      <path style="fill: #ffffff; fill-opacity: 1; stroke-opacity: 1; stroke-width: 2; stroke: #000000" fill-rule="evenodd" d="M 1220 702 C 1234.56,688.5 1241.84,684 1256.4,684 C 1270.96,684 1278.24,688.5 1292.8,702 L 1292.8,774 C 1278.24,787.5 1270.96,792 1256.4,792 C 1241.84,792 1234.56,787.5 1220,774 L 1220,702z"/>
      <path style="fill: none; stroke-opacity: 1; stroke-width: 2; stroke: #000000" d="M 1220 702 C 1234.56,715.5 1241.84,720 1256.4,720 C 1270.96,720 1278.24,715.5 1292.8,702"/>
      <text font-size="12.8" style="fill: #000000; fill-opacity: 1; stroke: none;text-anchor:middle;font-family:sans-serif;font-style:normal;font-weight:normal" x="1256.4" y="735">
        <tspan x="1256.4" y="735">Injector1's</tspan>
        <tspan x="1256.4" y="751">private</tspan>
        <tspan x="1256.4" y="767">db impl.</tspan>
      </text>
    </g>
    <g>
      <polyline style="fill: none; stroke-opacity: 1; stroke-width: 2; stroke-dasharray: 8; stroke: #000000" points="1200,498.236 1200,590.005 1256.4,590.005 1256.4,684.01 "/>
      <polygon style="fill: #ffffff; fill-opacity: 1; stroke-opacity: 1; stroke-width: 2; stroke: #000000" fill-rule="evenodd" points="1208,498.236 1200,482.236 1192,498.236 "/>
    </g>
    <g>
      <path style="fill: #ffffff; fill-opacity: 1; stroke-opacity: 1; stroke-width: 2; stroke: #000000" fill-rule="evenodd" d="M 500 727.333 C 513.57,721.833 520.355,720 533.925,720 C 547.495,720 554.28,721.833 567.85,727.333 L 567.85,756.667 C 554.28,762.167 547.495,764 533.925,764 C 520.355,764 513.57,762.167 500,756.667 L 500,727.333z"/>
      <path style="fill: none; stroke-opacity: 1; stroke-width: 2; stroke: #000000" d="M 500 727.333 C 513.57,732.833 520.355,734.667 533.925,734.667 C 547.495,734.667 554.28,732.833 567.85,727.333"/>
      <text font-size="12.8" style="fill: #000000; fill-opacity: 1; stroke: none;text-anchor:middle;font-family:sans-serif;font-style:normal;font-weight:normal" x="533.925" y="749.667">
        <tspan x="533.925" y="749.667">BitTorrent</tspan>
      </text>
    </g>
    <g>
      <path style="fill: #ffffff; fill-opacity: 1; stroke-opacity: 1; stroke-width: 2; stroke: #000000" fill-rule="evenodd" d="M 720 727.333 C 728,721.833 732,720 740,720 C 748,720 752,721.833 760,727.333 L 760,756.667 C 752,762.167 748,764 740,764 C 732,764 728,762.167 720,756.667 L 720,727.333z"/>
      <path style="fill: none; stroke-opacity: 1; stroke-width: 2; stroke: #000000" d="M 720 727.333 C 728,732.833 732,734.667 740,734.667 C 748,734.667 752,732.833 760,727.333"/>
      <text font-size="12.8" style="fill: #000000; fill-opacity: 1; stroke: none;text-anchor:middle;font-family:sans-serif;font-style:normal;font-weight:normal" x="740" y="749.667">
        <tspan x="740" y="749.667">IPFS</tspan>
      </text>
    </g>
    <g>
      <path style="fill: #ffffff; fill-opacity: 1; stroke-opacity: 1; stroke-width: 2; stroke: #000000" fill-rule="evenodd" d="M 960 727.333 C 968,721.833 972,720 980,720 C 988,720 992,721.833 1000,727.333 L 1000,756.667 C 992,762.167 988,764 980,764 C 972,764 968,762.167 960,756.667 L 960,727.333z"/>
      <path style="fill: none; stroke-opacity: 1; stroke-width: 2; stroke: #000000" d="M 960 727.333 C 968,732.833 972,734.667 980,734.667 C 988,734.667 992,732.833 1000,727.333"/>
      <text font-size="12.8" style="fill: #000000; fill-opacity: 1; stroke: none;text-anchor:middle;font-family:sans-serif;font-style:normal;font-weight:normal" x="980" y="749.667">
        <tspan x="980" y="749.667">SSB</tspan>
      </text>
    </g>
    <text font-size="12.8" style="fill: #000000; fill-opacity: 1; stroke: none;text-anchor:start;font-family:sans-serif;font-style:normal;font-weight:normal" x="980" y="120">
      <tspan x="980" y="120">points to</tspan>
    </text>
    <text font-size="12.8" style="fill: #000000; fill-opacity: 1; stroke: none;text-anchor:start;font-family:sans-serif;font-style:normal;font-weight:normal" x="1280" y="160">
      <tspan x="1280" y="160">signed by</tspan>
    </text>
    <text font-size="12.8" style="fill: #000000; fill-opacity: 1; stroke: none;text-anchor:start;font-family:sans-serif;font-style:normal;font-weight:normal" x="740" y="640">
      <tspan x="740" y="640">stored in</tspan>
    </text>
    <ellipse style="fill: #ffffff; fill-opacity: 1; stroke-opacity: 1; stroke-width: 2; stroke: #000000" cx="900" cy="40" rx="300" ry="40"/>
    <text font-size="12.8" style="fill: #000000; fill-opacity: 1; stroke: none;text-anchor:middle;font-family:sans-serif;font-style:normal;font-weight:normal" x="900" y="40">
      <tspan x="900" y="40">Injector1 service's abstract data base</tspan>
    </text>
    <g>
      <rect style="fill: #ffffff; fill-opacity: 1; stroke-opacity: 1; stroke-width: 2; stroke: #000000" x="1320" y="640" width="240" height="80" rx="0" ry="0"/>
      <text font-size="12.8" style="fill: #000000; fill-opacity: 1; stroke: none;text-anchor:start;font-family:sans-serif;font-style:normal;font-weight:normal" x="1340" y="660">
        <tspan x="1340" y="660">URI1: [bt:X1, ipfs:Y1, ssb:Z1, …]</tspan>
        <tspan x="1340" y="676">URI2: [bt:X2, ipfs:Y2, ssb:Z2, …]</tspan>
        <tspan x="1340" y="692">…</tspan>
        <tspan x="1340" y="708">URIn: [bt:Xn, ipfs:Yn, ssb:Zn, …]</tspan>
      </text>
    </g>
    <text font-size="12.8" style="fill: #000000; fill-opacity: 1; stroke: none;text-anchor:start;font-family:sans-serif;font-style:normal;font-weight:normal" x="1320" y="620">
      <tspan x="1320" y="620">URI descriptors:</tspan>
    </text>
    <text font-size="12.8" style="fill: #000000; fill-opacity: 1; stroke: none;text-anchor:start;font-family:sans-serif;font-style:normal;font-weight:normal" x="1320" y="760">
      <tspan x="1320" y="760">URI versions' data:</tspan>
    </text>
    <polyline style="fill: none; stroke-opacity: 1; stroke-width: 2; stroke: #000000" points="700,240 700,660 533.924,660 533.924,720 "/>
    <polyline style="fill: none; stroke-opacity: 1; stroke-width: 2; stroke: #000000" points="700,240 700,660 740,660 740,720.009 "/>
    <g>
      <polyline style="fill: none; stroke-opacity: 1; stroke-width: 2; stroke: #000000" points="700,240 700,660 980,660 980,709 "/>
      <polygon style="fill: #000000; fill-opacity: 1; stroke-opacity: 1; stroke-width: 2; stroke: #000000" fill-rule="evenodd" points="975,709 980,719 985,709 "/>
    </g>
    <g>
      <line style="fill: none; stroke-opacity: 1; stroke-width: 2; stroke-dasharray: 20; stroke: #000000" x1="715.073" y1="240.913" x2="823.381" y2="534.891"/>
      <polyline style="fill: none; stroke-opacity: 1; stroke-width: 2; stroke: #000000" points="816.005,529.334 824.154,536.989 825.388,525.877 "/>
    </g>
    <g>
      <polyline style="fill: none; stroke-opacity: 1; stroke-width: 2; stroke: #000000" points="840,620 840,660 533.924,660 533.924,709 "/>
      <polygon style="fill: #000000; fill-opacity: 1; stroke-opacity: 1; stroke-width: 2; stroke: #000000" fill-rule="evenodd" points="528.924,709 533.924,719 538.924,709 "/>
    </g>
    <g>
      <polyline style="fill: none; stroke-opacity: 1; stroke-width: 2; stroke: #000000" points="840,620 840,660 740,660 740,709 "/>
      <polygon style="fill: #000000; fill-opacity: 1; stroke-opacity: 1; stroke-width: 2; stroke: #000000" fill-rule="evenodd" points="735,709 740,719 745,709 "/>
    </g>
    <g>
      <polyline style="fill: none; stroke-opacity: 1; stroke-width: 2; stroke: #000000" points="840,620 840,660 980,660 980,709 "/>
      <polygon style="fill: #000000; fill-opacity: 1; stroke-opacity: 1; stroke-width: 2; stroke: #000000" fill-rule="evenodd" points="975,709 980,719 985,709 "/>
    </g>
    <g>
      <polygon style="fill: #ffffff; fill-opacity: 1; stroke-opacity: 1; stroke-width: 2; stroke: #000000" fill-rule="evenodd" points="1220,80 1395.4,80 1407.4,92 1407.4,130 1220,130 "/>
      <polyline style="fill: none; stroke-opacity: 1; stroke-width: 1; stroke: #000000" points="1395.4,80 1395.4,92 1407.4,92 "/>
      <text font-size="12.8" style="fill: #000000; fill-opacity: 1; stroke: none;text-anchor:start;font-family:monospace;font-style:normal;font-weight:normal" x="1227" y="104.9">
        <tspan x="1227" y="104.9">May include signatures</tspan>
        <tspan x="1227" y="120.9">from other injectors</tspan>
      </text>
    </g>
    <g>
      <rect style="fill: #ffffff; fill-opacity: 1; stroke-opacity: 1; stroke-width: 2; stroke: #000000" x="1320" y="780" width="240" height="80" rx="0" ry="0"/>
      <text font-size="12.8" style="fill: #000000; fill-opacity: 1; stroke: none;text-anchor:start;font-family:sans-serif;font-style:normal;font-weight:normal" x="1340" y="800">
        <tspan x="1340" y="800">URI1: [bt:X1, bt:Y1, ipfs:Z1, …]</tspan>
        <tspan x="1340" y="816">URI2: [bt:X2, bt:Y2, ipfs:Z2, …]</tspan>
        <tspan x="1340" y="832">…</tspan>
        <tspan x="1340" y="848">URIn: [bt:Xn, bt:Yn, ipfs:Zn, …]</tspan>
      </text>
    </g>
    <text font-size="12.8" style="fill: #000000; fill-opacity: 1; stroke: none;text-anchor:start;font-family:sans-serif;font-style:normal;font-weight:normal" x="800" y="420">
      <tspan x="800" y="420">refers to</tspan>
      <tspan x="800" y="436">(by data length+hash)</tspan>
    </text>
    <g>
      <rect style="fill: #ffffff; fill-opacity: 1; stroke-opacity: 1; stroke-width: 2; stroke: #000000" x="800" y="540" width="80" height="80" rx="0" ry="0"/>
      <text font-size="12.8" style="fill: #000000; fill-opacity: 1; stroke: none;text-anchor:middle;font-family:sans-serif;font-style:normal;font-weight:normal" x="840" y="560.425">
        <tspan x="840" y="560.425">versions'</tspan>
        <tspan x="840" y="576.425">data 1</tspan>
        <tspan x="840" y="592.425">data 2</tspan>
        <tspan x="840" y="608.425">…</tspan>
      </text>
    </g>
    <g>
      <rect style="fill: #ffffff; fill-opacity: 1; stroke-opacity: 1; stroke-width: 2; stroke: #000000" x="900" y="920" width="160" height="40" rx="0" ry="0"/>
      <rect style="fill: #ffffff; fill-opacity: 1; stroke-opacity: 1; stroke-width: 2; stroke: #000000" x="900" y="960" width="160" height="40" rx="0" ry="0"/>
      <text font-size="12.8" style="fill: #000000; fill-opacity: 1; stroke: none;text-anchor:middle;font-family:sans-serif;font-style:normal;font-weight:normal" x="980" y="944.425">
        <tspan x="980" y="944.425">Injector1 IPNS pubkey</tspan>
      </text>
      <text font-size="12.8" style="fill: #000000; fill-opacity: 1; stroke: none;text-anchor:middle;font-family:sans-serif;font-style:normal;font-weight:normal" x="980" y="984.425">
        <tspan x="980" y="984.425">Injector1 IPNS privkey</tspan>
      </text>
    </g>
    <g>
      <path style="fill: #ffffff; fill-opacity: 1; stroke-opacity: 1; stroke-width: 2; stroke: #000000" fill-rule="evenodd" d="M 400 918 C 418.04,904.5 427.06,900 445.1,900 C 463.14,900 472.16,904.5 490.2,918 L 490.2,990 C 472.16,1003.5 463.14,1008 445.1,1008 C 427.06,1008 418.04,1003.5 400,990 L 400,918z"/>
      <path style="fill: none; stroke-opacity: 1; stroke-width: 2; stroke: #000000" d="M 400 918 C 418.04,931.5 427.06,936 445.1,936 C 463.14,936 472.16,931.5 490.2,918"/>
      <text font-size="12.8" style="fill: #000000; fill-opacity: 1; stroke: none;text-anchor:middle;font-family:sans-serif;font-style:normal;font-weight:normal" x="445.1" y="951">
        <tspan x="445.1" y="951">BEP44-based</tspan>
        <tspan x="445.1" y="967">public</tspan>
        <tspan x="445.1" y="983">db impl.</tspan>
      </text>
    </g>
    <g>
      <rect style="fill: #ffffff; fill-opacity: 1; stroke-opacity: 1; stroke-width: 2; stroke: #000000" x="520" y="920" width="160" height="40" rx="0" ry="0"/>
      <rect style="fill: #ffffff; fill-opacity: 1; stroke-opacity: 1; stroke-width: 2; stroke: #000000" x="520" y="960" width="160" height="40" rx="0" ry="0"/>
      <text font-size="12.8" style="fill: #000000; fill-opacity: 1; stroke: none;text-anchor:middle;font-family:sans-serif;font-style:normal;font-weight:normal" x="600" y="944.425">
        <tspan x="600" y="944.425">Injector1 BEP44 pubkey</tspan>
      </text>
      <text font-size="12.8" style="fill: #000000; fill-opacity: 1; stroke: none;text-anchor:middle;font-family:sans-serif;font-style:normal;font-weight:normal" x="600" y="984.425">
        <tspan x="600" y="984.425">Injector1 BEP44 privkey</tspan>
      </text>
    </g>
    <g>
      <path style="fill: #ffffff; fill-opacity: 1; stroke-opacity: 1; stroke-width: 2; stroke: #000000" fill-rule="evenodd" d="M 1180 918 C 1194.88,904.5 1202.32,900 1217.2,900 C 1232.08,900 1239.52,904.5 1254.4,918 L 1254.4,990 C 1239.52,1003.5 1232.08,1008 1217.2,1008 C 1202.32,1008 1194.88,1003.5 1180,990 L 1180,918z"/>
      <path style="fill: none; stroke-opacity: 1; stroke-width: 2; stroke: #000000" d="M 1180 918 C 1194.88,931.5 1202.32,936 1217.2,936 C 1232.08,936 1239.52,931.5 1254.4,918"/>
      <text font-size="12.8" style="fill: #000000; fill-opacity: 1; stroke: none;text-anchor:middle;font-family:sans-serif;font-style:normal;font-weight:normal" x="1217.2" y="951">
        <tspan x="1217.2" y="951">SSB-based</tspan>
        <tspan x="1217.2" y="967">public</tspan>
        <tspan x="1217.2" y="983">db impl.</tspan>
      </text>
    </g>
    <g>
      <rect style="fill: #ffffff; fill-opacity: 1; stroke-opacity: 1; stroke-width: 2; stroke: #000000" x="1280" y="920" width="160" height="40" rx="0" ry="0"/>
      <rect style="fill: #ffffff; fill-opacity: 1; stroke-opacity: 1; stroke-width: 2; stroke: #000000" x="1280" y="960" width="160" height="40" rx="0" ry="0"/>
      <text font-size="12.8" style="fill: #000000; fill-opacity: 1; stroke: none;text-anchor:middle;font-family:sans-serif;font-style:normal;font-weight:normal" x="1360" y="944.425">
        <tspan x="1360" y="944.425">Injector1 SSB pubkey</tspan>
      </text>
      <text font-size="12.8" style="fill: #000000; fill-opacity: 1; stroke: none;text-anchor:middle;font-family:sans-serif;font-style:normal;font-weight:normal" x="1360" y="984.425">
        <tspan x="1360" y="984.425">Injector1 SSB privkey</tspan>
      </text>
    </g>
    <text font-size="12.8" style="fill: #000000; fill-opacity: 1; stroke: none;text-anchor:start;font-family:sans-serif;font-style:normal;font-weight:normal" x="620" y="140">
      <tspan x="620" y="140">URI descriptor:</tspan>
    </text>
    <g>
      <line style="fill: none; stroke-opacity: 1; stroke-width: 2; stroke: #000000" x1="466.667" y1="902.527" x2="520.214" y2="774.725"/>
      <polygon style="fill: #000000; fill-opacity: 1; stroke-opacity: 1; stroke-width: 2; stroke: #000000" fill-rule="evenodd" points="524.825,776.657 524.078,765.502 515.602,772.793 "/>
    </g>
    <g>
      <line style="fill: none; stroke-opacity: 1; stroke-width: 2; stroke: #000000" x1="816.171" y1="904.662" x2="754.705" y2="773.403"/>
      <polygon style="fill: #000000; fill-opacity: 1; stroke-opacity: 1; stroke-width: 2; stroke: #000000" fill-rule="evenodd" points="759.233,771.282 750.464,764.346 750.177,775.523 "/>
    </g>
    <g>
      <line style="fill: none; stroke-opacity: 1; stroke-width: 2; stroke: #000000" x1="1179" y1="919.859" x2="1006.92" y2="766.061"/>
      <polygon style="fill: #000000; fill-opacity: 1; stroke-opacity: 1; stroke-width: 2; stroke: #000000" fill-rule="evenodd" points="1010.25,762.333 999.465,759.397 1003.59,769.789 "/>
    </g>
    <text font-size="12.8" style="fill: #000000; fill-opacity: 1; stroke: none;text-anchor:start;font-family:sans-serif;font-style:normal;font-weight:normal" x="420" y="800">
      <tspan x="420" y="800">publishes</tspan>
      <tspan x="420" y="816">mappings</tspan>
    </text>
    <g>
      <path style="fill: #ffffff; fill-opacity: 1; stroke-opacity: 1; stroke-width: 2; stroke: #000000" fill-rule="evenodd" d="M 400 1098 C 418.04,1084.5 427.06,1080 445.1,1080 C 463.14,1080 472.16,1084.5 490.2,1098 L 490.2,1170 C 472.16,1183.5 463.14,1188 445.1,1188 C 427.06,1188 418.04,1183.5 400,1170 L 400,1098z"/>
      <path style="fill: none; stroke-opacity: 1; stroke-width: 2; stroke: #000000" d="M 400 1098 C 418.04,1111.5 427.06,1116 445.1,1116 C 463.14,1116 472.16,1111.5 490.2,1098"/>
      <text font-size="12.8" style="fill: #000000; fill-opacity: 1; stroke: none;text-anchor:middle;font-family:sans-serif;font-style:normal;font-weight:normal" x="445.1" y="1131">
        <tspan x="445.1" y="1131">BEP44-based</tspan>
        <tspan x="445.1" y="1147">republished</tspan>
        <tspan x="445.1" y="1163">cache</tspan>
      </text>
    </g>
    <g>
      <path style="fill: #ffffff; fill-opacity: 1; stroke-opacity: 1; stroke-width: 2; stroke: #000000" fill-rule="evenodd" d="M 800 1098 C 816.23,1084.5 824.345,1080 840.575,1080 C 856.805,1080 864.92,1084.5 881.15,1098 L 881.15,1170 C 864.92,1183.5 856.805,1188 840.575,1188 C 824.345,1188 816.23,1183.5 800,1170 L 800,1098z"/>
      <path style="fill: none; stroke-opacity: 1; stroke-width: 2; stroke: #000000" d="M 800 1098 C 816.23,1111.5 824.345,1116 840.575,1116 C 856.805,1116 864.92,1111.5 881.15,1098"/>
      <text font-size="12.8" style="fill: #000000; fill-opacity: 1; stroke: none;text-anchor:middle;font-family:sans-serif;font-style:normal;font-weight:normal" x="840.575" y="1131">
        <tspan x="840.575" y="1131">IPNS-based</tspan>
        <tspan x="840.575" y="1147">republished</tspan>
        <tspan x="840.575" y="1163">cache</tspan>
      </text>
    </g>
    <g>
      <rect style="fill: #ffffff; fill-opacity: 1; stroke-opacity: 1; stroke-width: 2; stroke: #000000" x="900" y="1100" width="180" height="40" rx="0" ry="0"/>
      <rect style="fill: #ffffff; fill-opacity: 1; stroke-opacity: 1; stroke-width: 2; stroke: #000000" x="900" y="1140" width="180" height="40" rx="0" ry="0"/>
      <text font-size="12.8" style="fill: #000000; fill-opacity: 1; stroke: none;text-anchor:middle;font-family:sans-serif;font-style:normal;font-weight:normal" x="990" y="1124.42">
        <tspan x="990" y="1124.42">Publisher1 IPNS pubkey</tspan>
      </text>
      <text font-size="12.8" style="fill: #000000; fill-opacity: 1; stroke: none;text-anchor:middle;font-family:sans-serif;font-style:normal;font-weight:normal" x="990" y="1164.42">
        <tspan x="990" y="1164.42">Publisher1 IPNS privkey</tspan>
      </text>
    </g>
    <g>
      <rect style="fill: #ffffff; fill-opacity: 1; stroke-opacity: 1; stroke-width: 2; stroke: #000000" x="520" y="1100" width="180" height="40" rx="0" ry="0"/>
      <rect style="fill: #ffffff; fill-opacity: 1; stroke-opacity: 1; stroke-width: 2; stroke: #000000" x="520" y="1140" width="180" height="40" rx="0" ry="0"/>
      <text font-size="12.8" style="fill: #000000; fill-opacity: 1; stroke: none;text-anchor:middle;font-family:sans-serif;font-style:normal;font-weight:normal" x="610" y="1124.42">
        <tspan x="610" y="1124.42">Publisher1 BEP44 pubkey</tspan>
      </text>
      <text font-size="12.8" style="fill: #000000; fill-opacity: 1; stroke: none;text-anchor:middle;font-family:sans-serif;font-style:normal;font-weight:normal" x="610" y="1164.42">
        <tspan x="610" y="1164.42">Publisher1 BEP44 privkey</tspan>
      </text>
    </g>
    <g>
      <line style="fill: none; stroke-opacity: 1; stroke-width: 2; stroke: #000000" x1="839.672" y1="1008.99" x2="840.098" y2="1068.01"/>
      <polygon style="fill: #000000; fill-opacity: 1; stroke-opacity: 1; stroke-width: 2; stroke: #000000" fill-rule="evenodd" points="835.099,1068.05 840.171,1078.01 845.098,1067.98 "/>
    </g>
    <g>
      <path style="fill: none; stroke-opacity: 1; stroke-width: 2; stroke: #000000" d="M 820.288,1184.06 A 242.666,242.666 0 0 1 475.381,1191.88"/>
      <polygon style="fill: #000000; fill-opacity: 1; stroke-opacity: 1; stroke-width: 2; stroke: #000000" fill-rule="evenodd" points="478.841,1188.62 468.337,1184.79 471.575,1195.49 "/>
    </g>
    <text font-size="12.8" style="fill: #000000; fill-opacity: 1; stroke: none;text-anchor:start;font-family:sans-serif;font-style:normal;font-weight:normal" x="860" y="1060">
      <tspan x="860" y="1060">replication</tspan>
    </text>
    <text font-size="12.8" style="fill: #000000; fill-opacity: 1; stroke: none;text-anchor:start;font-family:sans-serif;font-style:normal;font-weight:normal" x="780" y="1240">
      <tspan x="780" y="1240">conversion</tspan>
    </text>
    <g>
      <path style="fill: #222222; fill-opacity: 1; stroke-opacity: 1; stroke-width: 2; stroke: #000000" fill-rule="evenodd" d="M 1619.29 500 C 1625.11,500 1648.39,502.91 1654.21,508.73 C 1660.03,514.55 1660.03,523.28 1654.21,526.19 C 1648.39,529.101 1636.75,520.37 1636.75,517.46 C 1636.75,514.55 1642.57,514.55 1639.66,511.64 C 1636.75,508.73 1636.75,511.64 1633.84,511.64 C 1630.93,511.64 1633.84,511.64 1633.84,514.55 C 1633.84,517.46 1633.84,523.28 1636.75,523.28 C 1639.66,523.28 1639.66,523.28 1639.66,526.19 C 1639.66,529.101 1645.48,543.651 1645.48,549.471 C 1645.48,555.291 1648.39,561.111 1642.57,561.111 C 1636.75,561.111 1601.83,561.111 1596.01,561.111 C 1590.19,561.111 1593.1,555.291 1593.1,549.471 C 1593.1,543.651 1598.92,529.101 1598.92,526.19 C 1598.92,523.28 1598.92,523.28 1601.83,523.28 C 1604.74,523.28 1604.74,517.46 1604.74,514.55 C 1604.74,511.64 1607.65,511.64 1604.74,511.64 C 1601.83,511.64 1601.83,508.73 1598.92,511.64 C 1596.01,514.55 1601.83,514.55 1601.83,517.46 C 1601.83,520.37 1590.19,529.101 1584.37,526.19 C 1578.54,523.28 1578.54,514.55 1584.37,508.73 C 1590.19,502.91 1613.47,500 1619.29,500z"/>
      <ellipse style="fill: #777777; fill-opacity: 1; stroke-opacity: 1; stroke-width: 2; stroke: #000000" cx="1619.29" cy="526.772" rx="12.2222" ry="12.2222"/>
      <ellipse style="fill: #cccccc; fill-opacity: 1; stroke-opacity: 1; stroke-width: 2; stroke: #000000" cx="1625.69" cy="520.37" rx="1.74603" ry="1.74603"/>
      <ellipse style="fill: #cccccc; fill-opacity: 1; stroke-opacity: 1; stroke-width: 2; stroke: #000000" cx="1621.61" cy="518.042" rx="1.74603" ry="1.74603"/>
      <ellipse style="fill: #cccccc; fill-opacity: 1; stroke-opacity: 1; stroke-width: 2; stroke: #000000" cx="1616.96" cy="518.042" rx="1.74603" ry="1.74603"/>
      <ellipse style="fill: #cccccc; fill-opacity: 1; stroke-opacity: 1; stroke-width: 2; stroke: #000000" cx="1612.88" cy="520.37" rx="1.74603" ry="1.74603"/>
      <ellipse style="fill: #cccccc; fill-opacity: 1; stroke-opacity: 1; stroke-width: 2; stroke: #000000" cx="1610.56" cy="524.444" rx="1.74603" ry="1.74603"/>
      <ellipse style="fill: #cccccc; fill-opacity: 1; stroke-opacity: 1; stroke-width: 2; stroke: #000000" cx="1610.56" cy="529.101" rx="1.74603" ry="1.74603"/>
      <ellipse style="fill: #cccccc; fill-opacity: 1; stroke-opacity: 1; stroke-width: 2; stroke: #000000" cx="1612.88" cy="533.175" rx="1.74603" ry="1.74603"/>
      <ellipse style="fill: #cccccc; fill-opacity: 1; stroke-opacity: 1; stroke-width: 2; stroke: #000000" cx="1616.96" cy="535.503" rx="1.74603" ry="1.74603"/>
      <ellipse style="fill: #cccccc; fill-opacity: 1; stroke-opacity: 1; stroke-width: 2; stroke: #000000" cx="1621.61" cy="535.503" rx="1.74603" ry="1.74603"/>
      <ellipse style="fill: #cccccc; fill-opacity: 1; stroke-opacity: 1; stroke-width: 2; stroke: #000000" cx="1625.69" cy="533.175" rx="1.74603" ry="1.74603"/>
      <ellipse style="fill: #aaaaaa; fill-opacity: 1; stroke-opacity: 1; stroke-width: 2; stroke: #000000" cx="1619.29" cy="526.772" rx="5.82011" ry="5.82011"/>
      <path style="fill: #aaaaaa; fill-opacity: 1; stroke-opacity: 1; stroke-width: 2; stroke: #000000" fill-rule="evenodd" d="M 1628.02 529.683 C 1629.18,530.265 1629.76,529.683 1631.51,529.683 C 1633.25,529.683 1632.67,529.101 1632.67,530.265 C 1632.09,531.429 1632.67,531.429 1630.93,531.429 C 1629.18,531.429 1629.18,532.011 1626.85,530.265 C 1624.52,529.101 1626.27,528.519 1628.02,529.683z"/>
    </g>
    <text font-size="12.8" style="fill: #000000; fill-opacity: 1; stroke: none;text-anchor:start;font-family:sans-serif;font-style:normal;font-weight:normal" x="1500" y="500">
      <tspan x="1500" y="500">Injector1</tspan>
      <tspan x="1500" y="516">ouiservice</tspan>
      <tspan x="1500" y="532">transport</tspan>
      <tspan x="1500" y="548">endpoints</tspan>
    </text>
    <text font-size="12.8" style="fill: #000000; fill-opacity: 1; stroke: none;text-anchor:start;font-family:sans-serif;font-style:normal;font-weight:normal" x="1160" y="620">
      <tspan x="1160" y="620">implements</tspan>
    </text>
    <g>
      <polyline style="fill: none; stroke-opacity: 1; stroke-width: 2; stroke: #000000" points="1619.29,561.216 1619.29,580 1274.6,580 1274.6,676.938 "/>
      <polygon style="fill: #000000; fill-opacity: 1; stroke-opacity: 1; stroke-width: 2; stroke: #000000" fill-rule="evenodd" points="1269.6,676.938 1274.6,686.938 1279.6,676.938 "/>
    </g>
    <text font-size="12.8" style="fill: #000000; fill-opacity: 1; stroke: none;text-anchor:start;font-family:sans-serif;font-style:normal;font-weight:normal" x="1300" y="560">
      <tspan x="1300" y="560">triggers insertion</tspan>
    </text>
    <g>
      <polygon style="fill: #ffffff; fill-opacity: 1; stroke-opacity: 1; stroke-width: 2; stroke: #000000" fill-rule="evenodd" points="1320,1120 1572.4,1120 1584.4,1132 1584.4,1186 1320,1186 "/>
      <polyline style="fill: none; stroke-opacity: 1; stroke-width: 1; stroke: #000000" points="1572.4,1120 1572.4,1132 1584.4,1132 "/>
      <text font-size="12.8" style="fill: #000000; fill-opacity: 1; stroke: none;text-anchor:start;font-family:monospace;font-style:normal;font-weight:normal" x="1327" y="1144.9">
        <tspan x="1327" y="1144.9">Public cache publisher metadata:</tspan>
        <tspan x="1327" y="1160.9">- Cache: IPNS pubkey/id</tspan>
        <tspan x="1327" y="1176.9">- Cache: BEP44 pubkey/id</tspan>
      </text>
    </g>
    <g>
      <polygon style="fill: #ffffff; fill-opacity: 1; stroke-opacity: 1; stroke-width: 2; stroke: #000000" fill-rule="evenodd" points="380,360 632.4,360 644.4,372 644.4,506 380,506 "/>
      <polyline style="fill: none; stroke-opacity: 1; stroke-width: 1; stroke: #000000" points="632.4,360 632.4,372 644.4,372 "/>
      <text font-size="12.8" style="fill: #000000; fill-opacity: 1; stroke: none;text-anchor:start;font-family:monospace;font-style:normal;font-weight:normal" x="387" y="384.9">
        <tspan x="387" y="384.9">Public injector metadata:</tspan>
        <tspan x="387" y="400.9">- Cache: Signature pubkey</tspan>
        <tspan x="387" y="416.9">- Cache: IPNS pubkey/id</tspan>
        <tspan x="387" y="432.9">- Cache: BEP44 pubkey/id</tspan>
        <tspan x="387" y="448.9">- Cache: SSB pubkey/id</tspan>
        <tspan x="387" y="464.9">- Transport: I2P endpoint(s?)</tspan>
        <tspan x="387" y="480.9">- Transport: GNUnet endpoint(s?)</tspan>
        <tspan x="387" y="496.9">- Transport: HTTPS endpoint(s?)</tspan>
      </text>
    </g>
    <text font-size="23.7067" style="fill: #000000; fill-opacity: 1; stroke: none;text-anchor:end;font-family:sans-serif;font-style:italic;font-weight:700" x="1600" y="1100">
      <tspan x="1600" y="1100">Publisher1</tspan>
    </text>
    <g>
      <path style="fill: #ffffff; fill-opacity: 1; stroke-opacity: 1; stroke-width: 2; stroke: #000000" fill-rule="evenodd" d="M 800 918 C 815.71,904.5 823.565,900 839.275,900 C 854.985,900 862.84,904.5 878.55,918 L 878.55,990 C 862.84,1003.5 854.985,1008 839.275,1008 C 823.565,1008 815.71,1003.5 800,990 L 800,918z"/>
      <path style="fill: none; stroke-opacity: 1; stroke-width: 2; stroke: #000000" d="M 800 918 C 815.71,931.5 823.565,936 839.275,936 C 854.985,936 862.84,931.5 878.55,918"/>
      <text font-size="12.8" style="fill: #000000; fill-opacity: 1; stroke: none;text-anchor:middle;font-family:sans-serif;font-style:normal;font-weight:normal" x="839.275" y="951">
        <tspan x="839.275" y="951">IPNS-based</tspan>
        <tspan x="839.275" y="967">public</tspan>
        <tspan x="839.275" y="983">db impl.</tspan>
      </text>
    </g>
    <g>
      <polyline style="fill: none; stroke-opacity: 1; stroke-width: 2; stroke: #000000" points="1256.4,791.978 1256.4,880 445.1,880 445.1,889 "/>
      <polygon style="fill: #000000; fill-opacity: 1; stroke-opacity: 1; stroke-width: 2; stroke: #000000" fill-rule="evenodd" points="440.1,889 445.1,899 450.1,889 "/>
    </g>
    <g>
      <polyline style="fill: none; stroke-opacity: 1; stroke-width: 2; stroke: #000000" points="1256.4,791.978 1256.4,880 839.276,880 839.276,889 "/>
      <polygon style="fill: #000000; fill-opacity: 1; stroke-opacity: 1; stroke-width: 2; stroke: #000000" fill-rule="evenodd" points="834.276,888.999 839.276,899 844.276,889 "/>
    </g>
    <g>
      <polyline style="fill: none; stroke-opacity: 1; stroke-width: 2; stroke: #000000" points="1256.4,791.978 1256.4,880 1217.2,880 1217.2,889 "/>
      <polygon style="fill: #000000; fill-opacity: 1; stroke-opacity: 1; stroke-width: 2; stroke: #000000" fill-rule="evenodd" points="1212.2,889 1217.2,899 1222.2,889 "/>
    </g>
    <text font-size="12.8" style="fill: #000000; fill-opacity: 1; stroke: none;text-anchor:start;font-family:sans-serif;font-style:normal;font-weight:normal" x="1200" y="860">
      <tspan x="1200" y="860">feeds</tspan>
    </text>
    <text font-size="12.8" style="fill: #000000; fill-opacity: 1; stroke: none;text-anchor:start;font-family:sans-serif;font-style:normal;font-weight:normal" x="1100" y="780">
      <tspan x="1100" y="780">seeds</tspan>
      <tspan x="1100" y="796">data</tspan>
    </text>
    <g>
      <polyline style="fill: none; stroke-opacity: 1; stroke-width: 2; stroke: #000000" points="1167.33,788.007 1167.33,820 533.925,820 533.925,774.976 "/>
      <polygon style="fill: #000000; fill-opacity: 1; stroke-opacity: 1; stroke-width: 2; stroke: #000000" fill-rule="evenodd" points="538.925,774.976 533.925,764.976 528.925,774.976 "/>
    </g>
    <g>
      <polyline style="fill: none; stroke-opacity: 1; stroke-width: 2; stroke: #000000" points="1167.33,788.007 1167.33,820 740,820 740,774.976 "/>
      <polygon style="fill: #000000; fill-opacity: 1; stroke-opacity: 1; stroke-width: 2; stroke: #000000" fill-rule="evenodd" points="745,774.976 740,764.976 735,774.976 "/>
    </g>
    <g>
      <polyline style="fill: none; stroke-opacity: 1; stroke-width: 2; stroke: #000000" points="1167.33,788.007 1167.33,820 980,820 980,774.976 "/>
      <polygon style="fill: #000000; fill-opacity: 1; stroke-opacity: 1; stroke-width: 2; stroke: #000000" fill-rule="evenodd" points="985,774.976 980,764.976 975,774.976 "/>
    </g>
    <g>
      <path style="fill: #ffffff; fill-opacity: 1; stroke-opacity: 1; stroke-width: 2; stroke: #000000" fill-rule="evenodd" d="M 1140 698 C 1150.93,684.5 1156.39,680 1167.33,680 C 1178.26,680 1183.72,684.5 1194.65,698 L 1194.65,770 C 1183.72,783.5 1178.26,788 1167.33,788 C 1156.39,788 1150.93,783.5 1140,770 L 1140,698z"/>
      <path style="fill: none; stroke-opacity: 1; stroke-width: 2; stroke: #000000" d="M 1140 698 C 1150.93,711.5 1156.39,716 1167.33,716 C 1178.26,716 1183.72,711.5 1194.65,698"/>
      <text font-size="12.8" style="fill: #000000; fill-opacity: 1; stroke: none;text-anchor:middle;font-family:sans-serif;font-style:normal;font-weight:normal" x="1167.33" y="731">
        <tspan x="1167.33" y="731">Cached</tspan>
        <tspan x="1167.33" y="747">data</tspan>
        <tspan x="1167.33" y="763">storage</tspan>
      </text>
    </g>
    <g>
      <path style="fill: #ffffff; fill-opacity: 1; stroke-opacity: 1; stroke-width: 2; stroke: #000000" fill-rule="evenodd" d="M 1140 1138 C 1150.93,1124.5 1156.39,1120 1167.33,1120 C 1178.26,1120 1183.72,1124.5 1194.65,1138 L 1194.65,1210 C 1183.72,1223.5 1178.26,1228 1167.33,1228 C 1156.39,1228 1150.93,1223.5 1140,1210 L 1140,1138z"/>
      <path style="fill: none; stroke-opacity: 1; stroke-width: 2; stroke: #000000" d="M 1140 1138 C 1150.93,1151.5 1156.39,1156 1167.33,1156 C 1178.26,1156 1183.72,1151.5 1194.65,1138"/>
      <text font-size="12.8" style="fill: #000000; fill-opacity: 1; stroke: none;text-anchor:middle;font-family:sans-serif;font-style:normal;font-weight:normal" x="1167.33" y="1171">
        <tspan x="1167.33" y="1171">Cached</tspan>
        <tspan x="1167.33" y="1187">data</tspan>
        <tspan x="1167.33" y="1203">storage</tspan>
      </text>
    </g>
    <text font-size="12.8" style="fill: #000000; fill-opacity: 1; stroke: none;text-anchor:start;font-family:sans-serif;font-style:normal;font-weight:normal" x="1100" y="1220">
      <tspan x="1100" y="1220">seeds</tspan>
      <tspan x="1100" y="1236">data</tspan>
    </text>
  </g>
</svg>
